<svg width="350" height="145" viewBox="0 0 350 145" fill="none" xmlns="http://www.w3.org/2000/svg">
<path d="M92.5234 67.3738L93.9453 67.5221H94.5293C95.1895 67.5221 95.5195 67.588 95.5195 67.7198L95.3164 67.9421C95.3164 68.008 95.4688 68.0822 95.7734 68.1645V68.1892C95.6211 68.3045 95.4772 68.5516 95.3418 68.9305L93.8438 69.1529L93.6406 69.2023V69.2517L93.7676 71.0555C93.7676 71.4343 93.6829 72.225 93.5137 73.4275V73.8724C93.5137 74.2182 93.556 74.9019 93.6406 75.9232L93.6152 75.9479L93.4121 75.429H93.3359L93.3105 75.7996V77.208C93.3105 77.7845 93.3444 78.0729 93.4121 78.0729H93.4629L93.6152 76.2938L93.6406 76.269H93.6914L93.7676 76.8621L93.6152 78.7647C93.7676 79.0777 93.8607 79.333 93.8945 79.5307C94.1315 79.5307 94.4954 79.9672 94.9863 80.8402C95.3079 81.1368 95.8835 81.285 96.7129 81.285L97.3477 81.4333H97.5254C98.1009 81.4333 98.5156 81.145 98.7695 80.5684C99.1081 80.0413 99.472 79.4318 99.8613 78.74C100.098 78.4764 100.217 78.114 100.217 77.6528V77.2575L100.115 74.836L100.191 74.5395C100.208 74.5395 100.234 74.5806 100.268 74.663H100.344C100.445 74.663 100.513 74.416 100.547 73.9217C100.327 73.9217 100.217 73.8476 100.217 73.6993L100.369 71.8462C100.217 70.2153 99.9798 69.4 99.6582 69.4C98.8288 69.2847 98.4141 69.1282 98.4141 68.9305C98.2279 68.6505 98.1348 68.4199 98.1348 68.2387C98.4564 67.7939 98.9557 67.5715 99.6328 67.5715C99.6328 67.5386 100.234 67.5056 101.436 67.4727C102.265 67.4727 102.68 67.555 102.68 67.7198L102.73 67.868V68.2387C102.73 68.7493 102.46 69.12 101.918 69.3506L101.842 69.4494V69.4988C101.994 71.7721 102.121 73.1146 102.223 73.5264C101.986 74.2182 101.867 75.4949 101.867 77.3562C101.867 77.6033 101.529 78.7647 100.852 80.8402C100.598 81.285 100.462 81.5074 100.445 81.5074C100.327 81.5239 100.251 81.5898 100.217 81.7051V81.7545H100.42V81.7792C100.403 81.8121 100.191 81.9769 99.7852 82.2734C99.5143 82.5369 99.0911 82.6687 98.5156 82.6687L97.8555 82.6193L96.459 82.8663C94.7155 82.8663 93.5052 82.4628 92.8281 81.6556C92.5573 81.5403 92.4219 81.3674 92.4219 81.1368L92.4473 80.8897C92.1934 80.5767 91.8971 79.7449 91.5586 78.394L91.4062 77.4551V77.2822L91.4824 76.8374L91.3301 76.7879V76.5408L91.2031 76.2444C91.237 75.9479 91.3555 75.6267 91.5586 75.2807V74.1688L91.8633 71.1296V69.3506C91.8633 69.1694 91.6094 69.0376 91.1016 68.9552C90.9661 68.6093 90.8984 68.214 90.8984 67.7692C90.8984 67.5056 91.4401 67.3738 92.5234 67.3738ZM101.918 68.1645L101.842 68.2387C101.977 68.3704 102.13 68.4363 102.299 68.4363H102.375C102.375 68.2551 102.265 68.1645 102.045 68.1645H101.918ZM99.7852 68.3869H99.3281V68.4363L99.6074 68.5352H99.7852L99.8613 68.4363L99.7852 68.3869ZM101.283 68.3869L101.182 68.4363L101.283 68.5352H101.385L101.461 68.4363L101.385 68.3869H101.283ZM91.7109 68.5599H91.584V68.6093C91.584 68.6752 91.6517 68.7081 91.7871 68.7081H91.8379L91.8887 68.634C91.8717 68.5846 91.8125 68.5599 91.7109 68.5599ZM92.498 69.1529C92.4473 69.2517 92.4219 69.3506 92.4219 69.4494L92.498 69.5482H92.5742C92.6927 69.4824 92.752 69.4082 92.752 69.3259C92.735 69.2106 92.6504 69.1529 92.498 69.1529ZM93.209 69.4L93.1328 69.3012L92.9297 69.7212V69.7706C92.9805 69.8859 93.0566 69.9435 93.1582 69.9435C93.1921 69.8448 93.209 69.7294 93.209 69.5977V69.4ZM92.8281 71.1791V71.2038H92.8789L92.9551 70.932H92.9297C92.862 70.932 92.8281 71.0143 92.8281 71.1791ZM101.283 71.1791H101.182L101.156 71.3025V71.7474L101.182 71.8214H101.232C101.3 71.805 101.334 71.7474 101.334 71.6485V71.4509L101.283 71.1791ZM92.3203 71.352H92.2441V71.5003V71.7474V71.9203H92.3203C92.388 71.9203 92.4219 71.8133 92.4219 71.5991C92.4049 71.4343 92.3711 71.352 92.3203 71.352ZM93.0566 72.2663V72.7604H93.1582C93.209 72.5628 93.2344 72.3321 93.2344 72.0685V71.7474H93.1582C93.0905 71.7474 93.0566 71.9203 93.0566 72.2663ZM101.385 72.6616H101.232L101.182 73.131V73.4275H101.283C101.351 73.2134 101.385 73.0157 101.385 72.8346V72.6616ZM92.5234 74.0947L92.4727 74.0453V74.0947H92.5234ZM92.498 74.6136H92.4727L92.4473 74.7865V75.6761H92.5234L92.5742 75.0583V74.663L92.498 74.6136ZM100.928 74.663H100.902V74.7618C100.902 74.8113 100.987 74.8442 101.156 74.8607L101.182 74.836V74.8113C101.08 74.7124 100.995 74.663 100.928 74.663ZM101.182 75.5772H101.105L101.08 75.7255V75.7749H101.182V75.6267V75.5772ZM100.902 76.7879H100.928C101.029 76.7879 101.089 76.5574 101.105 76.0961H101.08C100.979 76.1126 100.919 76.3432 100.902 76.7879ZM100.801 77.208V77.3562H100.826C100.894 77.3398 100.928 77.2575 100.928 77.1092V76.961H100.902C100.835 76.9774 100.801 77.0597 100.801 77.208ZM92.6758 79.1601H92.625V79.2836C92.625 79.4648 92.6758 79.6707 92.7773 79.9013C92.7435 80.0001 92.7266 80.1073 92.7266 80.2225V80.3708C92.7604 80.552 92.8535 80.6426 93.0059 80.6426L93.082 80.6179V80.5684C93.0312 80.239 92.9889 80.0167 92.9551 79.9013L92.9805 79.7036V79.6543C92.9805 79.5554 92.8789 79.3906 92.6758 79.1601ZM93.8945 79.7283H93.8438V79.753C93.8438 79.8189 94.013 80.1154 94.3516 80.6426V80.692H94.5293L94.6562 80.5684V80.5437C94.6562 80.4614 94.487 80.2802 94.1484 80.0001V79.9754L94.25 79.9013C94.1823 79.786 94.0638 79.7283 93.8945 79.7283ZM99.4805 81.0873L99.5312 81.1368H99.5566C99.9121 81.005 100.09 80.8402 100.09 80.6426L100.014 80.6179C99.8105 80.6179 99.6328 80.7744 99.4805 81.0873ZM93.1582 81.1862L93.082 81.2603C93.1497 81.425 93.2344 81.5403 93.3359 81.6062H93.3867V81.5074C93.3867 81.3921 93.3105 81.285 93.1582 81.1862ZM94.7832 81.2356L94.707 81.285V81.3097L94.7832 81.3838H94.9102V81.3097L94.7832 81.2356ZM98.7441 81.4827H98.8203C98.9219 81.4827 98.9896 81.4333 99.0234 81.3344V81.2603H98.998C98.8288 81.2768 98.7441 81.3509 98.7441 81.4827ZM96.6621 81.5568L96.4082 81.6309V81.7298H96.4336C96.6029 81.7298 96.696 81.6968 96.7129 81.6309V81.5568H96.6621ZM99.4043 82.1004V82.1498H99.4551C99.5736 82.1498 99.6413 82.1004 99.6582 82.0016V81.9522H99.6328C99.4974 82.0016 99.4212 82.051 99.4043 82.1004ZM97.0684 81.9522L96.8398 82.0016V82.1498H96.9922C97.0768 82.1498 97.1361 82.1086 97.1699 82.0263V81.9522H97.0684ZM98.5918 82.4216V82.4711H98.8203C99.125 82.4216 99.2773 82.3393 99.2773 82.224H99.125C98.8542 82.224 98.6764 82.2898 98.5918 82.4216ZM104.711 64.8041L105.168 64.8288C107.572 64.8288 109.078 64.9689 109.688 65.2488C111.008 65.43 112.21 65.6607 113.293 65.9408C113.53 66.0725 114.004 66.2207 114.715 66.3855C114.935 66.4678 115.13 66.6656 115.299 66.9785C115.908 67.4727 116.213 68.1645 116.213 69.0541L115.73 71.1791C115.544 71.6402 115.053 72.4556 114.258 73.6252C114.258 73.9711 113.014 74.5312 110.525 75.3054C110.424 75.4372 109.984 75.5361 109.205 75.6019C108.934 75.6843 108.062 75.7996 106.59 75.9479V78.8389L106.539 81.2356C107.453 81.2356 108.342 81.4168 109.205 81.7792V81.8533H109.23L109.205 81.878V82.1498C109.205 82.1992 109.23 82.2651 109.281 82.3475L109.154 82.5945V82.8417C109.154 83.0229 109.002 83.1134 108.697 83.1134H107.631V83.1629C107.631 83.2453 107.826 83.3029 108.215 83.3359V83.4594L107.91 83.5088C107.165 83.3112 106.006 83.2123 104.432 83.2123C104.296 83.0311 104.212 82.9405 104.178 82.9405L103.492 83.1134C103.492 83.1794 103.585 83.2287 103.771 83.2617V83.2865C103.771 83.3359 103.678 83.3771 103.492 83.4099C103.323 83.4099 103.238 82.8829 103.238 81.8286L103.137 81.3838C103.137 81.2191 103.221 81.1368 103.391 81.1368L104.279 81.2356H104.432C104.618 81.2356 104.711 80.0413 104.711 77.6528L104.762 76.4668C104.66 76.4668 104.609 76.3103 104.609 75.9973L104.559 75.256V74.1442C104.559 73.897 104.542 73.6417 104.508 73.3781L104.559 73.2052L104.457 73.1063V73.0075L104.609 72.8592V72.6616L104.508 72.5381C104.592 71.4179 104.635 70.5696 104.635 69.993V69.9435C104.55 69.8283 104.508 69.6224 104.508 69.3259V69.0046L104.66 67.5469V67.5221C104.288 67.4892 103.831 67.4727 103.289 67.4727C103.086 67.4727 102.951 67.2009 102.883 66.6573V66.6326C102.883 66.5337 102.951 66.3361 103.086 66.0395L103.035 65.6937C103.035 65.5289 103.171 65.4383 103.441 65.4219H103.518V65.3972L103.391 65.1501V65.1006C103.408 64.9523 103.848 64.8535 104.711 64.8041ZM105.574 65.1501L104.787 65.1994V65.2488C104.787 65.2983 105.32 65.3477 106.387 65.3972L107.123 65.3477C107.208 65.3147 107.25 65.29 107.25 65.2736V65.1994L106.717 65.1501H105.574ZM107.631 65.2736L107.707 65.323H108.164L108.266 65.2736C108.266 65.2077 108.139 65.1665 107.885 65.1501C107.715 65.1665 107.631 65.2077 107.631 65.2736ZM111.414 65.7677L111.338 65.8172H111.465L111.414 65.7677ZM111.338 66.2619L111.312 66.2866V66.3113C111.414 66.3608 111.524 66.3855 111.643 66.3855H111.668V66.3608C111.668 66.2949 111.558 66.2619 111.338 66.2619ZM104.635 66.4349V66.4844L104.787 66.5091H104.863C105.066 66.4761 105.168 66.4349 105.168 66.3855L105.117 66.3113H104.914C104.762 66.3113 104.669 66.3525 104.635 66.4349ZM105.879 66.3608H105.803V66.3855H105.879V66.3608ZM106.387 66.5337H106.26V66.5831C106.26 66.7479 106.387 66.8302 106.641 66.8302L107.326 66.7562V66.7315C107.326 66.6161 107.013 66.5502 106.387 66.5337ZM112.48 66.6079L112.455 66.6326V66.6573C112.726 66.8714 112.921 66.9785 113.039 66.9785V66.8797C113.039 66.7643 112.853 66.6737 112.48 66.6079ZM105.32 66.6573L105.244 66.7315V66.7562C105.346 66.9044 105.498 66.9785 105.701 66.9785H105.904L106.031 66.8302V66.7808C106.031 66.7314 105.887 66.6902 105.6 66.6573H105.32ZM111.516 66.8302H111.465V66.9044C111.465 66.9867 111.524 67.028 111.643 67.028H111.668V66.8797L111.516 66.8302ZM104.863 66.9291L104.787 67.028C104.787 67.0444 104.863 67.0691 105.016 67.102C105.134 67.0856 105.193 67.0609 105.193 67.028L105.143 66.9291H104.863ZM106.336 67.2997V67.4727V67.5469V67.6456L106.285 68.881C106.285 69.7871 106.429 71.1296 106.717 72.9086L106.793 74.1194C107.301 74.1194 108.198 73.9711 109.484 73.6746C110.009 73.6746 110.695 73.3864 111.541 72.8099C112.15 72.5133 112.675 72.1509 113.115 71.7227C113.589 71.0473 113.826 70.4213 113.826 69.8448C113.877 69.8448 113.902 69.7212 113.902 69.4741V69.3012C113.902 69.1035 113.335 68.6752 112.201 68.0163C110.61 67.5386 109.569 67.2092 109.078 67.028L108.545 66.9785C107.242 66.9785 106.505 67.0856 106.336 67.2997ZM105.803 67.2751H105.752V67.4727H105.803L105.828 67.3985V67.3491L105.803 67.2751ZM113.115 67.5962H113.09V67.6456C113.225 67.8268 113.386 67.9174 113.572 67.9174V67.7692C113.386 67.6539 113.234 67.5962 113.115 67.5962ZM114.461 67.5962L114.385 67.6456V67.6951C114.436 67.7774 114.495 67.8187 114.562 67.8187L114.613 67.7692V67.7445L114.486 67.5962H114.461ZM113.572 68.3869H113.42V68.461C113.437 68.5269 113.521 68.5599 113.674 68.5599H113.801L113.826 68.5352H113.877C113.877 68.4363 113.775 68.3869 113.572 68.3869ZM114.309 68.881V68.9799L114.461 69.0788L114.512 69.0294C114.461 68.9305 114.393 68.881 114.309 68.881ZM115.857 69.0294L115.807 69.0788C115.824 69.1941 115.866 69.2517 115.934 69.2517H115.984L116.035 69.0788L115.934 69.0294H115.857ZM115.248 69.6965L115.172 69.7459V69.7953L115.248 69.8695H115.299V69.7459L115.248 69.6965ZM113.496 72.1921L113.521 72.2415C113.775 72.0438 113.902 71.8709 113.902 71.7227H113.801C113.598 71.9203 113.496 72.0768 113.496 72.1921ZM105.803 71.7474L105.752 71.8214V71.8956H105.803L105.879 71.8214V71.7474H105.803ZM111.592 73.2793L111.643 73.3288C111.71 73.3122 111.77 73.2463 111.82 73.131V73.057H111.744C111.643 73.1063 111.592 73.1804 111.592 73.2793ZM113.775 73.2546L113.725 73.3288V73.3535L113.775 73.4275H113.801L113.902 73.3288L113.826 73.2546H113.775ZM109.916 74.07V74.1442H109.992C110.483 74.0617 110.729 73.9876 110.729 73.9217V73.8724H110.551C110.178 73.8888 109.967 73.9547 109.916 74.07ZM112.43 74.2182V74.2429H112.557C112.777 74.2429 113.048 74.1523 113.369 73.9711V73.8724H113.242C112.701 74.0206 112.43 74.1359 112.43 74.2182ZM111.541 74.3665L111.414 74.49H111.465C111.583 74.49 111.651 74.4571 111.668 74.3912V74.3665H111.541ZM110.373 74.6877L110.322 74.7618L110.525 74.836H110.576L110.627 74.7618L110.576 74.6877H110.373ZM108.342 75.0583V75.1078H108.469L109.027 74.9348C109.62 74.9183 109.933 74.8689 109.967 74.7865V74.7618H109.713C109.053 74.7618 108.596 74.8607 108.342 75.0583ZM106.971 74.9348L106.895 75.0089C106.895 75.0748 107.005 75.1078 107.225 75.1078C107.394 75.0913 107.479 75.0583 107.479 75.0089L107.402 74.9348H106.971ZM105.574 79.1847C105.574 79.5471 105.6 79.7283 105.65 79.7283H105.701V79.5059V78.6658L105.65 78.6165C105.6 78.6165 105.574 78.8059 105.574 79.1847ZM105.701 80.1484L105.65 80.099C105.6 80.1979 105.574 80.2966 105.574 80.3955V80.4697H105.65L105.701 80.4202V80.1484ZM104.076 81.7051L104.025 81.7545C104.042 81.8204 104.102 81.8533 104.203 81.8533C104.322 81.8368 104.381 81.8039 104.381 81.7545V81.7051H104.076ZM106.768 82.2981H106.463V82.3475L106.844 82.3969H107.174V82.3475L106.768 82.2981ZM107.072 82.5452H106.869V82.6193H106.971L107.072 82.5945V82.5452ZM107.986 82.5945L107.809 82.6193V82.6687L107.859 82.7181H108.393V82.6687L107.986 82.5945ZM107.504 82.9405H107.402V83.0147H107.504V82.9405ZM121.926 65.6937L123.525 65.5454C124.744 65.7596 125.489 65.9408 125.76 66.089C126.979 66.8302 127.706 67.5139 127.943 68.1398L128.832 69.4494C129.052 70.3719 129.272 71.665 129.492 73.3288C129.357 75.4043 129.154 76.5738 128.883 76.8374C128.697 77.5293 128.426 78.2705 128.07 79.0612C127.258 80.692 126.691 81.6639 126.369 81.9769C125.692 82.5534 125.091 82.8417 124.566 82.8417C124.329 82.8911 124.211 82.9652 124.211 83.0641L123.094 83.4841L122.941 83.4594C122.214 83.5583 121.646 83.6077 121.24 83.6077H120.91C120.741 83.6077 120.098 83.4018 118.98 82.9899C118.693 82.8911 118.329 82.6028 117.889 82.1251C117.533 81.878 117.355 81.6392 117.355 81.4086C116.882 80.7661 116.424 79.7119 115.984 78.2458C115.798 77.7516 115.705 77.4634 115.705 77.381L115.68 76.9857C115.68 74.2841 116.086 72.2992 116.898 71.0307C117.169 70.6683 117.406 70.0341 117.609 69.1282L118.523 67.9916C118.523 67.5633 119.192 66.9455 120.529 66.1384C120.529 66.0561 120.995 65.9078 121.926 65.6937ZM125.354 66.1631H125.252V66.3113C125.76 66.6079 126.064 66.7562 126.166 66.7562V66.7067C125.794 66.3443 125.523 66.1631 125.354 66.1631ZM124.389 66.3855L124.312 66.4596V66.4844C124.888 66.8797 125.557 67.1762 126.318 67.3738V67.3244C126.2 67.1762 125.98 67.0444 125.658 66.9291C125.658 66.8468 125.404 66.7232 124.896 66.5584C124.795 66.4431 124.66 66.3855 124.49 66.3855H124.389ZM121.266 67.0773V67.1267C121.333 67.1267 121.757 66.9867 122.535 66.7067L122.84 66.6079V66.4844C122.417 66.4844 121.892 66.682 121.266 67.0773ZM117.584 74.9348V77.0104C117.584 78.4435 117.965 79.3659 118.727 79.7777C119.488 80.519 119.971 80.8897 120.174 80.8897C120.682 80.8897 121.096 81.0462 121.418 81.3591L121.646 81.4086L121.926 81.3591L122.154 81.5815H122.18C122.281 81.5815 122.408 81.4909 122.561 81.3097C123.339 81.1944 123.872 81.0214 124.16 80.7908C125.345 79.6377 125.938 78.9953 125.938 78.8636C126.648 77.2163 127.004 76.1784 127.004 75.7502C127.41 74.2348 127.706 73.477 127.893 73.477H127.943V73.3288C127.943 73.131 127.833 72.818 127.613 72.3898C127.495 71.072 127.334 70.2648 127.131 69.9683C126.775 69.0294 125.861 68.1975 124.389 67.4727C123.881 67.2421 123.576 67.1267 123.475 67.1267H123.297C122.535 67.4563 122.12 67.6209 122.053 67.6209C122.002 67.6209 121.977 67.6868 121.977 67.8187C121.029 68.4446 120.462 68.8564 120.275 69.0541L119.031 70.6107C118.727 70.9896 118.464 71.459 118.244 72.0192C117.804 73.0075 117.584 73.9794 117.584 74.9348ZM118.498 69.2517V69.2764H118.549C119.768 68.2387 120.377 67.6621 120.377 67.5469H120.352C119.979 67.5469 119.573 67.8598 119.133 68.4858C119.048 68.4858 118.913 68.5764 118.727 68.7576C118.574 68.7576 118.498 68.9223 118.498 69.2517ZM126.623 67.6209L126.521 67.7198H126.725L126.623 67.6209ZM120.631 68.1151V68.1398H120.707C121.181 68.0245 121.418 67.8845 121.418 67.7198L121.367 67.6703H121.291C120.851 67.7692 120.631 67.9174 120.631 68.1151ZM126.064 67.9421C126.064 68.1398 126.301 68.3375 126.775 68.5352H126.877C126.928 68.5352 126.953 68.494 126.953 68.4116C126.953 68.2798 126.657 68.1233 126.064 67.9421ZM127.639 68.6587L127.562 68.7576V68.8564C127.562 68.9882 127.816 69.4988 128.324 70.3884L128.07 69.3506C128.07 68.8893 127.943 68.6587 127.689 68.6587H127.639ZM118.092 69.3753L118.041 69.4494V69.4988H118.168V69.3753H118.092ZM117.99 69.6718H117.914V69.7459L117.99 69.6965V69.6718ZM118.549 70.1907L118.346 70.3884V70.4871H118.447C118.549 70.4871 118.6 70.3965 118.6 70.2153V70.1907H118.549ZM128.553 71.0555L128.4 70.932L128.375 70.9814V71.006L128.451 71.2778H128.553V71.0555ZM117.711 71.7227V71.8709L117.812 71.945C117.812 71.8627 117.923 71.6321 118.143 71.2532L118.168 71.0555H118.092C117.923 71.2038 117.796 71.4261 117.711 71.7227ZM127.943 74.0206H127.816V74.1194H127.867L127.943 74.0453V74.0206ZM128.451 74.2677H128.4C128.333 74.5147 128.299 74.7948 128.299 75.1078V75.1325H128.324C128.426 75.116 128.477 75.0336 128.477 74.8854V74.416L128.451 74.2677ZM128.857 75.7996V75.8985H128.959C129.061 75.5525 129.111 75.289 129.111 75.1078V75.0336H129.035C128.934 75.0336 128.874 75.289 128.857 75.7996ZM127.436 75.7996V75.9479H127.562L127.639 75.7255L127.588 75.4784H127.562C127.478 75.4784 127.436 75.5855 127.436 75.7996ZM126.801 78.2458H126.852C126.97 78.2458 127.08 77.9905 127.182 77.4798C127.351 77.1998 127.436 76.8292 127.436 76.3679V76.2938L127.41 76.2197C127.258 76.2197 127.08 76.7962 126.877 77.9493L126.852 77.9987L126.801 78.2458ZM116.797 77.0104L116.721 77.0597V77.0844L116.797 77.1586H116.822L116.898 77.0844V77.0597L116.822 77.0104H116.797ZM116.061 77.381L115.984 77.4798V77.6775L116.035 77.7269H116.086L116.137 77.5787V77.4551L116.061 77.381ZM126.268 78.8389L126.318 79.0365C125.827 79.6624 125.582 80.0084 125.582 80.0743H125.76L125.785 80.0248H125.811L125.836 80.0743V80.099L124.668 81.0379L124.643 81.112H124.668L124.693 81.1615H124.744C125.083 81.0462 125.48 80.7661 125.938 80.3214C126.361 79.7942 126.606 79.3247 126.674 78.9129V78.8389V78.6658C126.674 78.5505 126.632 78.4764 126.547 78.4435H126.496C126.411 78.4435 126.335 78.5752 126.268 78.8389ZM116.975 79.0118H116.949V79.2589C116.949 79.4565 117.059 79.6295 117.279 79.7777H117.355V79.7283C117.355 79.4978 117.229 79.2589 116.975 79.0118ZM125.658 81.9769V82.0757H125.684C126.344 81.6474 126.674 81.3262 126.674 81.112H126.572C126.183 81.4086 125.878 81.6968 125.658 81.9769ZM122.738 81.458V81.5074H123.018L123.094 81.4086V81.3591H123.018C122.848 81.3591 122.755 81.3921 122.738 81.458ZM120.275 81.4333C120.275 81.5486 120.394 81.6474 120.631 81.7298V81.7051C120.631 81.5733 120.512 81.4827 120.275 81.4333ZM118.6 81.8039H118.549V81.9027L118.625 81.9522H118.701V81.9027L118.6 81.8039ZM123.043 82.4958V82.5945H123.195C123.737 82.4628 124.008 82.2898 124.008 82.0757H123.982C123.847 82.0757 123.534 82.2157 123.043 82.4958ZM122.053 82.1498L121.672 82.1992V82.3228H122.053H122.611V82.2734C122.611 82.2075 122.501 82.1663 122.281 82.1498H122.053ZM121.113 82.1745L121.037 82.224L121.291 82.3228V82.2734C121.274 82.2075 121.215 82.1745 121.113 82.1745ZM124.693 82.4216L124.643 82.4958V82.5945H124.744L124.846 82.4958L124.744 82.4216H124.693ZM118.777 82.644V82.6934C118.777 82.7757 119.065 82.8993 119.641 83.0641C120.352 83.2782 120.834 83.3852 121.088 83.3852C121.494 83.3852 122.112 83.2946 122.941 83.1134V83.0641H122.459L120.732 83.1381L119.641 82.7676C119.302 82.6851 119.014 82.644 118.777 82.644ZM134.926 67.5469L134.596 67.102C135.104 67.0526 135.442 67.028 135.611 67.028C137.558 66.9291 138.633 66.8468 138.836 66.7808L140.258 66.7315C140.529 66.7479 140.664 66.822 140.664 66.9538C140.613 67.0197 140.588 67.1267 140.588 67.2751C140.689 67.3903 140.74 67.4644 140.74 67.4974V68.2634L140.766 68.2881C140.766 68.6505 140.393 69.2682 139.648 70.1413C139.344 70.553 139.073 71.0307 138.836 71.5743C138.768 71.6402 138.557 72.0192 138.201 72.711C137.253 74.1276 136.398 75.5608 135.637 77.0104C135.569 77.0433 135.349 77.3728 134.977 77.9987C134.57 78.4764 134.046 79.2753 133.402 80.3955V80.4202C133.436 80.5026 133.538 80.5437 133.707 80.5437H133.732L136.17 80.3955C136.949 80.3955 137.973 80.4697 139.242 80.6179C139.395 80.6179 139.555 80.1154 139.725 79.1106L139.877 79.2836C139.945 79.1188 140.055 78.9953 140.207 78.9129C141.121 79.0612 141.553 79.0695 141.502 78.9376C141.671 78.9542 141.815 80.1237 141.934 82.4463C141.714 82.4299 139.86 82.4628 136.373 82.5452L132.768 82.8417C132.564 82.9405 132.336 82.9899 132.082 82.9899L131.549 82.7923L130.939 82.8663H130.889C130.432 82.8663 130.169 82.784 130.102 82.6193L130.152 82.4958V82.1992C130.186 81.6062 130.973 80.3378 132.514 78.394C132.531 78.3117 133.072 77.4963 134.139 75.9479C135.357 73.9382 136.551 72.1427 137.719 70.5613C137.871 70.3472 138.243 69.9106 138.836 69.2517L138.861 69.1282C138.777 69.0788 138.599 69.0541 138.328 69.0541H138.277C137.533 69.0541 136.255 69.1941 134.443 69.4741H134.342L133.021 69.3753L132.818 69.7953L132.996 71.2038C132.996 71.385 132.438 71.5249 131.32 71.6238C131.1 71.1791 130.99 70.7755 130.99 70.4131V69.8695V69.5235L131.041 67.9421L130.889 67.5469C130.939 67.5469 131.058 67.4068 131.244 67.1267C131.329 67.0444 131.633 67.1432 132.158 67.4233C132.023 67.2915 131.955 67.2092 131.955 67.1762V67.1267L131.98 67.102L132.387 67.3985C133.064 67.3327 133.648 67.2585 134.139 67.1762L133.961 67.2256V67.2751H134.088C134.68 67.5715 134.977 67.6703 134.977 67.5715L134.926 67.5469ZM135.383 67.3985C135.383 67.4644 136.187 67.5139 137.795 67.5469L138.379 67.6456C138.531 67.5798 138.684 67.5469 138.836 67.5469H139.293L139.953 67.0773V67.028C139.648 67.1267 139.335 67.1762 139.014 67.1762C136.593 67.2256 135.383 67.2997 135.383 67.3985ZM137.617 71.8214V71.945C137.77 71.945 138.176 71.4756 138.836 70.5366L139.902 69.1776V69.1282H139.801C139.496 69.1282 139.115 69.4329 138.658 70.0424C138.472 70.4378 138.125 71.0307 137.617 71.8214ZM139.42 67.9174L139.217 67.9669L137.541 67.9421C137.287 68.0739 136.991 68.181 136.652 68.2634V68.2881L137.008 68.3622H137.186L138.48 68.1398C138.87 68.1234 139.191 68.0657 139.445 67.9669V67.9174H139.42ZM132.361 68.041H132.336L132.361 68.5599H132.412C132.548 68.4281 132.649 68.3622 132.717 68.3622L133.352 68.3869H133.783V68.3128C133.783 68.214 133.309 68.1234 132.361 68.041ZM135.078 76.7633V76.7879C135.247 76.7879 135.442 76.4668 135.662 75.8243C135.865 75.6102 135.967 75.4537 135.967 75.3549V75.3054C135.713 75.3054 135.417 75.7914 135.078 76.7633ZM141.121 82.1004C141.172 82.2487 141.265 82.3228 141.4 82.3228C141.485 82.3228 141.527 82.2981 141.527 82.2487L141.451 81.3344H141.375C141.273 81.3344 141.189 81.5898 141.121 82.1004ZM135.002 82.1498V82.1992L135.383 82.224H135.561C136.153 82.224 136.585 82.1992 136.855 82.1498V82.0757L136.703 82.051H136.678C135.899 82.051 135.34 82.0839 135.002 82.1498ZM133.453 82.3228V82.3969L133.504 82.4463H133.555C133.995 82.4463 134.257 82.3804 134.342 82.2487C134.342 82.2322 134.198 82.2075 133.91 82.1745C133.605 82.2075 133.453 82.2569 133.453 82.3228ZM132.768 79.9261L132.717 80.0495V80.099C133.089 79.753 133.385 79.3742 133.605 78.9623V78.8883C133.335 79.1354 133.055 79.4812 132.768 79.9261ZM138.049 67.6703L136.805 67.7198H136.754V67.7445H138.531L138.582 67.7198L138.049 67.6703ZM133.707 68.9305V69.0541H133.732L134.596 68.9305V68.9058L134.52 68.8317H134.139C133.986 68.8317 133.842 68.8646 133.707 68.9305ZM130.584 82.3969L130.66 82.4958H131.066L131.168 82.3969V82.3722L131.066 82.2487H130.889C130.702 82.2487 130.601 82.2981 130.584 82.3969ZM133.453 67.7445L133.377 67.8187V67.8927L133.707 67.9174C133.91 67.9174 134.012 67.8845 134.012 67.8187V67.7939L133.859 67.7445H133.453ZM131.244 70.9072L131.295 71.006H131.346C131.464 70.9401 131.557 70.8248 131.625 70.6602L131.574 70.586H131.473C131.388 70.619 131.312 70.726 131.244 70.9072ZM133.25 80.9885H133.885L133.961 80.9144L133.885 80.865H133.732C133.411 80.865 133.25 80.9061 133.25 80.9885ZM139.852 81.878L139.699 82.0016L139.75 82.0757H139.902C140.021 82.0757 140.089 82.0428 140.105 81.9769L140.004 81.878H139.852ZM137.16 80.6673L137.059 80.7661C137.059 80.8155 137.092 80.8402 137.16 80.8402C137.363 80.8073 137.465 80.7661 137.465 80.7167L137.439 80.6673H137.16ZM139.953 80.2719L139.852 80.3955V80.4943L139.902 80.5437H139.928C140.012 80.5108 140.055 80.4449 140.055 80.3461V80.2719H139.953ZM133.047 82.3969L132.971 82.4958V82.5945H133.225L133.301 82.4958L133.25 82.3969H133.047ZM139.217 81.4333H139.014V81.458C139.014 81.5074 139.09 81.5486 139.242 81.5815L139.293 81.532V81.5074L139.217 81.4333ZM135.738 67.8433H135.611V67.8927C135.628 67.9422 135.696 67.9669 135.814 67.9669V67.9174L135.738 67.8433ZM134.596 67.102H134.57L134.164 67.1762C134.316 67.1267 134.46 67.102 134.596 67.102ZM131.32 69.4247H131.244V69.4988L131.32 69.5482H131.396V69.4988L131.32 69.4247ZM138.023 82.0016H137.922V82.0757H138.023V82.0016ZM156.152 65.2983H156.406C156.592 65.2983 156.686 65.5125 156.686 65.9408L156.736 66.0148L156.762 66.0395L156.787 66.1384H156.812C156.66 66.5996 156.415 66.8302 156.076 66.8302C156.076 66.9126 155.771 66.962 155.162 66.9785L155.111 67.0526C155.602 73.2134 155.848 77.2904 155.848 79.2836L155.924 81.6804C155.924 82.2898 155.805 82.5945 155.568 82.5945C155.484 82.6111 155.238 82.6193 154.832 82.6193H154.02C153.596 82.6193 153.385 82.5369 153.385 82.3722C153.368 82.0592 153.148 81.5568 152.725 80.865C152.505 79.7119 152.234 78.9212 151.912 78.4929C151.912 78.4435 151.785 78.2788 151.531 77.9987C150.651 76.5656 149.83 75.0995 149.068 73.6006C148.916 73.4194 148.552 72.7357 147.977 71.5496C147.486 70.6931 146.978 69.9435 146.453 69.3012H146.352V69.9189C146.352 70.4131 146.402 71.4343 146.504 72.9828C146.504 74.1359 146.368 75.9479 146.098 78.4187V78.7647L146.25 79.2836L146.174 81.0626L146.301 81.7051L146.174 82.1992V82.2981H146.098C146.013 82.2157 145.928 82.1745 145.844 82.1745H145.691V82.1992C145.759 82.3146 145.793 82.4133 145.793 82.4958V82.6193C145.911 82.6193 145.996 82.5781 146.047 82.4958C146.148 82.5452 146.199 82.6111 146.199 82.6934C146.199 82.9735 146.081 83.1134 145.844 83.1134L143.686 83.1629C143.212 83.097 142.975 82.9076 142.975 82.5945C142.89 82.018 142.814 81.6062 142.746 81.3591C142.746 81.2768 143.152 81.0791 143.965 80.7661L143.99 80.7415V79.9261C143.99 79.7283 144.041 79.5884 144.143 79.5059V79.4318C144.024 79.4318 143.965 78.8883 143.965 77.8011V77.5046C144.32 74.3254 144.498 70.5777 144.498 66.2619C144.515 65.7513 144.566 65.4959 144.65 65.4959C144.65 65.43 144.997 65.3806 145.691 65.3477H145.971C146.326 65.3477 146.809 65.8583 147.418 66.8797C148.129 67.7692 148.628 68.4116 148.916 68.807L150.008 70.586C150.837 71.5249 151.523 72.8099 152.064 74.4406C152.606 75.5772 152.953 76.1455 153.105 76.1455C153.326 75.9314 153.436 75.6019 153.436 75.1572L153.385 74.1442L153.461 70.7096C153.359 70.0507 153.309 69.5647 153.309 69.2517V69.1529C153.309 68.214 153.368 67.5715 153.486 67.2256C153.486 67.0939 153.046 67.028 152.166 67.028L152.09 66.9291V66.1137C152.09 65.5865 152.327 65.323 152.801 65.323C154.087 65.3066 155.204 65.2983 156.152 65.2983ZM156.381 65.5701H156.102V65.6442L156.305 65.6937H156.33L156.406 65.5948L156.381 65.5701ZM145.793 65.6937L145.717 65.7183C145.768 65.9325 145.878 66.0395 146.047 66.0395L146.098 65.9655V65.7925L145.971 65.6937H145.793ZM155.619 66.2126H155.518V66.3113H155.619V66.2126ZM152.648 66.4349L152.598 66.5091L152.699 66.6079H152.75L153.207 66.5584C153.173 66.4761 153.105 66.4349 153.004 66.4349H152.648ZM153.842 67.448V67.5469C153.893 67.6621 153.952 67.7198 154.02 67.7198L154.096 67.6456V67.2997L154.02 67.2256H153.994C153.893 67.2421 153.842 67.3162 153.842 67.448ZM145.666 68.8317L145.691 68.881H145.717C145.768 68.881 145.793 68.6422 145.793 68.1645V67.5469C145.708 67.5469 145.666 67.9751 145.666 68.8317ZM146.402 67.8187L146.326 67.8927V68.1398C146.326 68.2716 146.385 68.4281 146.504 68.6093H146.605C146.521 68.0822 146.462 67.8187 146.428 67.8187H146.402ZM147.342 69.0046H147.291V69.0541C147.613 69.8448 147.9 70.4707 148.154 70.932C148.256 71.0473 148.307 71.1296 148.307 71.1791H148.408V71.1049C148.29 70.4954 148.087 69.993 147.799 69.5977L147.342 69.0046ZM148.992 70.3142H148.865V70.3884C148.933 70.6849 149.128 71.0226 149.449 71.4014H149.525C149.288 70.6766 149.111 70.3142 148.992 70.3142ZM148.713 71.5743L148.561 71.5003L148.535 71.5249V71.5496C148.772 72.2086 149.288 73.1887 150.084 74.49H150.135C150.084 74.2265 149.61 73.2546 148.713 71.5743ZM150.668 72.7851H150.643C150.829 73.2958 151.023 73.6664 151.227 73.897L151.277 73.8724C150.973 73.1969 150.77 72.8346 150.668 72.7851ZM151.48 74.2182H151.43V74.2677C151.548 74.7783 151.717 75.1489 151.938 75.3796H151.988C151.988 75.3137 151.819 74.9266 151.48 74.2182ZM150.287 74.9101L150.262 74.9348C150.482 75.5443 150.643 75.849 150.744 75.849L150.82 75.7749V75.7255C150.82 75.6267 150.643 75.3549 150.287 74.9101ZM144.955 77.6033H144.98C145.082 77.6033 145.141 77.2739 145.158 76.615V76.3679H145.107C145.09 76.3679 145.04 76.7798 144.955 77.6033ZM151.684 77.1586H151.557V77.3315L151.861 77.7022H151.912V77.4304L151.684 77.2575V77.1586ZM154.375 78.0234C154.375 78.2705 154.409 78.394 154.477 78.394C154.544 78.3776 154.578 78.3034 154.578 78.1717L154.553 77.5046H154.502C154.434 77.5046 154.392 77.6775 154.375 78.0234ZM144.777 78.2705V78.6165H144.879C144.93 78.6165 144.98 78.4846 145.031 78.2211C145.014 78.0729 144.972 77.9987 144.904 77.9987C144.82 78.0316 144.777 78.1222 144.777 78.2705ZM155.137 79.6295H155.061V79.7283H155.137V79.6295ZM152.852 79.9507H152.75C152.75 80.099 152.868 80.2637 153.105 80.4449V80.4202C153.105 80.3708 153.021 80.2143 152.852 79.9507ZM154.273 80.3461H154.248V80.3955L154.273 80.4449H154.375V80.3955L154.273 80.3461ZM144.904 80.6179H144.879V80.7415L144.904 80.8155H144.955L145.031 80.7415V80.7167L144.904 80.6179ZM153.359 80.9638H153.283V81.0132L153.359 81.112H153.385L153.359 80.9638ZM143.686 81.1368L143.533 81.2109V81.285H143.99L144.041 81.2603V81.2109L143.99 81.1368H143.686ZM155.619 81.3838H155.568V81.5074L155.645 81.6062H155.695V81.5074L155.619 81.3838ZM144.828 81.7298L144.727 81.8286V81.878H144.777L144.879 81.7792V81.7298H144.828ZM143.152 81.9274C143.203 82.0098 143.279 82.051 143.381 82.051H143.457L143.762 81.9769V81.878L143.381 81.8286C143.229 81.8616 143.152 81.8945 143.152 81.9274ZM155.137 81.9274H155.061V81.9769L155.137 81.9274ZM143.635 82.6687L143.584 82.7428C143.601 82.8087 143.66 82.8417 143.762 82.8417C143.914 82.8252 143.99 82.7923 143.99 82.7428L143.939 82.6687H143.635ZM164.709 66.2866C165.708 66.4185 166.207 66.5996 166.207 66.8302L167.426 70.3637L168.238 73.1804C168.611 74.8607 169.093 76.6727 169.686 78.6165C169.719 78.5999 169.753 78.5918 169.787 78.5918V78.8389H169.762C169.779 78.8883 169.796 78.9459 169.812 79.0118C169.846 79.0777 169.863 79.1271 169.863 79.1601L170.346 80.1731L170.473 80.7908L170.422 81.0626C170.608 81.1944 170.82 81.2685 171.057 81.285H171.564H171.59C171.776 81.318 171.886 81.3591 171.92 81.4086L171.768 81.7051L171.793 82.1251C171.793 82.3063 171.708 82.4793 171.539 82.644H171.438C171.302 82.5122 171.192 82.4463 171.107 82.4463H171.057C170.887 82.4463 170.794 82.4958 170.777 82.5945C170.777 82.644 170.93 82.677 171.234 82.6934V82.7676C171.234 82.8334 171.133 82.8746 170.93 82.8911L170.6 82.7923H170.346L168.771 82.9405C168.416 82.9405 167.976 82.7346 167.451 82.3228L167.654 82.1251V82.0263L167.4 81.5074C167.4 81.3097 167.714 81.2109 168.34 81.2109L168.365 81.1615V81.0626C168.365 80.3213 168.018 79.4895 167.324 78.567H167.299C165.538 78.6988 163.482 78.8717 161.129 79.0859H160.57C160.503 79.1518 160.274 79.8107 159.885 81.0626C159.952 81.1285 160.046 81.1615 160.164 81.1615H160.672C161.264 81.1615 161.772 81.3921 162.195 81.8533V81.878C162.195 81.9933 161.975 82.2157 161.535 82.5452C161.535 82.7264 160.249 82.817 157.676 82.817C157.253 82.8005 157.041 82.7511 157.041 82.6687L157.143 82.3475V82.3228C157.143 82.2569 157.075 82.1087 156.939 81.878C156.939 81.7792 157.092 81.6556 157.396 81.5074L157.422 81.4333V81.0626C157.422 80.9144 157.507 80.8402 157.676 80.8402L157.777 80.9391L157.676 81.2356L157.701 81.2603H157.727C157.93 80.9803 158.031 80.7826 158.031 80.6673V80.5684C158.031 80.4697 158.006 80.4202 157.955 80.4202C158.124 80.1237 158.26 79.7283 158.361 79.2341L159.682 75.6761L160.164 74.5147C160.164 74.3665 160.316 74.1194 160.621 73.7735V73.724L160.545 73.477C160.731 73.3452 160.824 73.2381 160.824 73.1557L160.748 73.0817C160.748 72.9169 160.85 72.744 161.053 72.5628L161.027 72.3898L162.195 69.0541C162.483 68.5599 162.745 67.9669 162.982 67.2751C163.033 67.2751 163.16 67.1186 163.363 66.8055C164.057 66.4761 164.506 66.3032 164.709 66.2866ZM161.053 77.2822V77.4057L161.129 77.4551C163.346 77.1092 165.09 76.9362 166.359 76.9362H167.4L167.477 76.8374V76.8126C167.392 76.2197 167.24 75.9232 167.02 75.9232L165.42 71.2285C165.234 70.553 165.048 70.0095 164.861 69.5977C164.777 69.4 164.675 69.26 164.557 69.1776C164.557 69.3423 164.548 69.5153 164.531 69.6965C163.346 72.0026 162.492 73.5676 161.967 74.3912C161.696 74.9019 161.391 75.8655 161.053 77.2822ZM170.701 82.0263V82.0757H170.727C171.065 82.0757 171.234 82.0263 171.234 81.9274L171.107 81.8286C170.972 81.8286 170.837 81.8945 170.701 82.0263ZM164.455 68.7081H164.48C164.633 68.7081 164.709 68.6422 164.709 68.5105V68.4116H164.633C164.514 68.4775 164.455 68.5764 164.455 68.7081ZM165.217 66.6573H165.09V66.7808L165.166 66.8549H165.369L165.42 66.8055V66.7808C165.386 66.6985 165.318 66.6573 165.217 66.6573ZM165.521 77.3315L165.471 77.4304L165.521 77.4798H165.648C165.801 77.4798 165.885 77.4468 165.902 77.381V77.3315H165.521ZM169.508 79.4072H168.771V79.5059L169.508 79.4565V79.4072ZM159.707 79.2836H159.656L159.631 79.4318L159.656 79.5554H159.707L159.783 79.4812V79.3083L159.707 79.2836ZM168.568 82.7923V82.8417H168.67C168.771 82.8417 168.831 82.8087 168.848 82.7428L168.797 82.6687C168.678 82.6687 168.602 82.7099 168.568 82.7923ZM158.717 79.4565L158.539 79.6048V79.679C158.674 79.679 158.751 79.6213 158.768 79.5059L158.717 79.4565ZM167.096 76.5162L167.197 76.3926L167.223 76.4173V76.615L167.146 76.6892L167.096 76.5162ZM161.561 73.5264L161.484 73.0322L161.459 73.1804V73.2546H161.484C161.535 73.5347 161.561 73.6417 161.561 73.5758V73.5264ZM169.965 80.8155H169.939V80.9885L170.016 81.0626H170.041V80.8897L169.965 80.8155ZM158.539 81.0626L158.438 81.0873V81.1615L158.514 81.2356H158.539L158.59 81.1615L158.539 81.0626ZM164.557 67.4974H164.531V67.5469L164.582 67.6209H164.633V67.5469L164.557 67.4974ZM163.617 77.8258H163.541V77.8998H163.617V77.8258ZM161.307 73.7982H161.281V73.8724H161.307V73.7982ZM177.633 65.7183L179.309 66.0395C179.596 66.0395 180.087 66.2784 180.781 66.7562H180.883C180.9 66.1137 180.959 65.7925 181.061 65.7925C181.568 65.9737 181.873 66.0643 181.975 66.0643H182.482L182.889 66.0395L182.939 66.1137L182.914 66.2619V69.4247C182.914 69.6059 182.855 69.7542 182.736 69.8695C182.872 70.0012 182.939 70.1247 182.939 70.2401C182.939 70.3554 182.889 70.4954 182.787 70.6602L182.863 71.0802C182.863 71.2778 182.812 71.3767 182.711 71.3767L182.051 71.2778H182.025L181.67 71.3767H181.619C181.551 71.3767 181.441 71.0226 181.289 70.3142C181.289 70.0836 181.188 69.8777 180.984 69.6965C180.764 69.3835 180.654 69.1694 180.654 69.0541L180.807 69.0046V68.9799C180.553 68.7823 180.4 68.5599 180.35 68.3128C179.656 67.6375 179.063 67.2997 178.572 67.2997H178.395C178.208 67.2997 177.362 67.4727 175.855 67.8187C175.72 67.9174 175.5 68.2304 175.195 68.7576C174.874 69.1694 174.713 69.5647 174.713 69.9435C174.814 70.9979 174.95 71.5249 175.119 71.5249C175.339 72.0851 175.602 72.4227 175.906 72.5381C175.957 72.6204 176.16 72.7027 176.516 72.7851C176.753 72.9992 177.252 73.2629 178.014 73.5758C178.014 73.6417 178.098 73.6829 178.268 73.6993L178.572 73.6006C178.708 73.6334 178.775 73.6664 178.775 73.6993V73.724L178.674 73.8229V73.897C178.911 74.1771 179.199 74.3171 179.537 74.3171V74.2924L179.055 73.897V73.8724C179.207 73.8724 179.749 74.1606 180.68 74.7371C182.085 76.0055 182.787 76.8126 182.787 77.1586C183.024 78.1635 183.143 78.7894 183.143 79.0365C182.99 80.2885 182.846 80.9144 182.711 80.9144L182.102 81.9522C180.934 82.644 180.248 82.9899 180.045 82.9899C178.098 82.5781 176.803 82.2487 176.16 82.0016C174.84 80.7991 174.18 80.0907 174.18 79.8766L174.078 79.8025L174.027 79.8272V79.9507V81.3344C174.027 81.4497 173.723 81.5074 173.113 81.5074H172.656L172.275 81.6309C172.157 81.6309 172.005 81.5403 171.818 81.3591V81.3344L171.945 81.1368C172.064 78.3693 172.208 76.9857 172.377 76.9857H172.428L172.885 77.0597C172.969 77.0597 173.054 77.0351 173.139 76.9857L173.469 77.0597L173.646 77.0104H173.748C173.816 77.0433 173.968 77.2822 174.205 77.7269C174.848 78.5176 175.424 79.2753 175.932 80.0001C175.999 80.0001 176.211 80.2225 176.566 80.6673L178.141 81.3344H178.598V81.4333H178.648L178.775 81.3591H178.826C178.962 81.458 179.089 81.5074 179.207 81.5074H179.359C179.816 81.4909 180.045 81.4333 180.045 81.3344V81.285H179.537L179.232 81.2603C179.249 81.1944 179.85 81.0709 181.035 80.8897C181.306 80.8897 181.568 80.4284 181.822 79.5059C181.822 79.2094 181.898 78.9953 182.051 78.8636V78.7647C181.763 77.8917 181.441 77.3234 181.086 77.0597C180.883 76.7139 180.113 76.3103 178.775 75.849C177.895 75.5196 177.184 75.1325 176.643 74.6877C175.847 74.4571 175.39 74.2018 175.271 73.9217C175.17 73.7076 174.781 73.3535 174.104 72.8592C173.799 71.9533 173.469 71.2532 173.113 70.7589C172.927 70.0341 172.834 69.2682 172.834 68.461C172.969 67.9174 173.579 67.1679 174.662 66.2126C175.288 65.8831 176.279 65.7183 177.633 65.7183ZM174.662 66.5831H174.967C175.102 66.5831 175.729 66.4431 176.846 66.1631C177.252 66.0972 177.455 66.0314 177.455 65.9655L177.354 65.9408C175.559 66.089 174.662 66.3032 174.662 66.5831ZM181.365 66.2619L181.34 66.3608V66.4349C181.34 66.5337 181.408 66.5831 181.543 66.5831H181.975V66.5584C181.805 66.3608 181.602 66.2619 181.365 66.2619ZM175.424 67.4974H175.475C175.644 67.4974 176.042 67.3491 176.668 67.0526L177.354 66.8055V66.8302L177.277 66.9785H177.48L177.633 66.9291V66.8302L177.582 66.7562V66.6079H177.531C176.854 66.8055 176.296 67.0114 175.855 67.2256C175.568 67.2751 175.424 67.3657 175.424 67.4974ZM179.715 66.8055H179.283C179.283 66.8385 179.537 66.9208 180.045 67.0526H180.172L180.223 67.028V66.9785C180.172 66.8632 180.003 66.8055 179.715 66.8055ZM181.467 66.8302L181.416 66.9291V66.9785L181.441 67.1267H181.518L181.594 67.0526V66.9291L181.518 66.8302H181.467ZM174.789 67.1762V67.2009C174.789 67.2503 174.823 67.2751 174.891 67.2751C174.975 67.2421 175.035 67.1845 175.068 67.102V67.0526C174.916 67.0526 174.823 67.0938 174.789 67.1762ZM180.553 67.2997L180.68 67.4233H180.807L180.883 67.3491V67.2751C180.883 67.2256 180.815 67.1762 180.68 67.1267C180.595 67.1597 180.553 67.2173 180.553 67.2997ZM181.848 67.6456L181.924 67.6951V67.7198L181.822 67.8433V67.9174C181.822 67.9504 181.89 67.9916 182.025 68.041C182.059 68.1728 182.11 68.2469 182.178 68.2634H182.254V68.1645L182.229 68.0905V67.9916H182.305L182.432 68.0905H182.482L182.508 67.9421V67.8927C182.389 67.4315 182.305 67.2009 182.254 67.2009H182.102C181.932 67.2668 181.848 67.415 181.848 67.6456ZM174.637 68.2634L174.789 68.4116H174.84C175.043 68.3787 175.229 68.2716 175.398 68.0905L175.322 68.041H175.043C174.857 68.041 174.721 68.1151 174.637 68.2634ZM173.52 68.0657L173.443 68.1398V68.1645H173.57V68.0657H173.52ZM174.205 69.227V69.2517H174.256C174.561 68.9717 174.713 68.7246 174.713 68.5105L174.637 68.4363C174.434 68.4363 174.29 68.6999 174.205 69.227ZM182.482 68.5105H182.355V68.5599C182.406 68.6587 182.457 68.7081 182.508 68.7081V68.6093L182.482 68.5105ZM182.229 68.6834L182.152 68.7576H182.229V68.6834ZM181.822 68.807L181.721 68.881V68.9058L181.822 69.0046H181.924L182.025 68.9058V68.881L181.924 68.807H181.822ZM182.406 69.0541L182.305 69.1282V69.3012L182.33 69.4741H182.406L182.482 69.0541H182.406ZM181.873 69.4741H181.822V69.5235L181.873 69.5977H181.975V69.5235L181.873 69.4741ZM181.797 70.1413V70.5366L181.848 70.586H181.873C182.008 70.586 182.085 70.5284 182.102 70.4131C182.017 70.2153 181.975 70.0507 181.975 69.9189H181.924C181.839 69.9518 181.797 70.026 181.797 70.1413ZM181.924 70.932L181.848 71.006L181.975 71.0802H182.051L182.076 71.006L181.975 70.932H181.924ZM174.104 71.9945V72.1674L174.205 72.2663H174.408V72.1674C174.29 72.0521 174.188 71.9945 174.104 71.9945ZM174.586 72.6616H174.561V72.7851C174.916 73.0322 175.153 73.1557 175.271 73.1557H175.373V73.057C175.136 72.8922 174.874 72.7604 174.586 72.6616ZM177.76 73.5017H177.531C177.548 73.5676 177.616 73.6006 177.734 73.6006H177.836V73.5758L177.76 73.5017ZM178.014 73.8724L177.938 73.9217C178.005 74.0206 178.285 74.177 178.775 74.3912V74.2924C178.538 74.0782 178.285 73.9382 178.014 73.8724ZM178.598 75.3549H178.471V75.4784C178.691 75.5772 178.962 75.6349 179.283 75.6514C179.283 75.7173 179.342 75.7502 179.461 75.7502H179.664V75.7255C179.664 75.5772 179.309 75.4537 178.598 75.3549ZM180.299 76.022H180.223V76.0961L180.299 76.1703H180.35V76.0961L180.299 76.022ZM172.656 78.567H172.555C172.47 78.8141 172.428 79.1271 172.428 79.5059L172.479 79.8272H172.504C172.656 79.8272 172.732 79.7613 172.732 79.6295C172.682 79.2506 172.656 78.8965 172.656 78.567ZM173.189 79.2836C173.105 79.5637 173.012 79.7449 172.91 79.8272L173.012 80.099V80.7415V80.8897C173.012 81.005 173.046 81.0626 173.113 81.0626H173.266L173.342 80.9885V80.8897C173.342 79.8189 173.291 79.2836 173.189 79.2836ZM174.586 79.9013H174.561V79.9507C174.628 80.2143 174.755 80.3461 174.941 80.3461V80.2966C174.823 80.0331 174.704 79.9013 174.586 79.9013ZM172.504 80.4449L172.555 80.4943H172.58C172.631 80.4943 172.673 80.3296 172.707 80.0001L172.656 79.9507C172.589 79.9507 172.538 80.1154 172.504 80.4449ZM175.475 80.1237H175.424V80.1484C175.559 80.3955 175.695 80.519 175.83 80.519V80.4449C175.695 80.2966 175.576 80.1896 175.475 80.1237ZM182.051 80.5437L181.924 80.6673L182.025 80.7661H182.152L182.254 80.6673V80.6179L182.178 80.5437H182.051ZM176.973 81.112V81.1368C177.007 81.2191 177.066 81.2603 177.15 81.2603C177.117 81.1615 177.057 81.112 176.973 81.112ZM175.754 81.1615L175.576 81.1368V81.1615C175.745 81.5239 176.169 81.8039 176.846 82.0016C177.404 82.1992 178.191 82.4052 179.207 82.6193C179.41 82.7511 179.588 82.8252 179.74 82.8417H179.969C180.392 82.7264 180.604 82.5781 180.604 82.3969L178.318 82.224C176.981 81.8121 176.126 81.458 175.754 81.1615ZM180.223 81.878V81.9274L180.299 81.9769H180.426C181.035 81.9769 181.374 81.8945 181.441 81.7298L181.34 81.6804H181.188C181.001 81.6804 180.68 81.7462 180.223 81.878ZM179.461 82.4958V82.3969H179.512C179.63 82.3969 179.689 82.4299 179.689 82.4958H179.613H179.461ZM176.592 61.5425L177.76 61.2707C178.183 62.2261 178.462 62.778 178.598 62.9262C178.767 63.2227 178.902 63.4451 179.004 63.5934C179.122 63.7416 179.207 63.7992 179.258 63.7663C179.935 62.6627 180.493 61.8473 180.934 61.3201L181.797 61.5425L181.365 62.2838C181.348 62.3662 181.128 62.638 180.705 63.0991L180.451 63.5934C180.045 64.1369 179.833 64.4087 179.816 64.4087C179.799 64.4087 179.791 64.4253 179.791 64.4582V64.4829H179.816C179.816 64.5488 179.74 64.5899 179.588 64.6065L179.41 64.6559C179.156 64.6888 178.962 64.6805 178.826 64.6312C178.657 64.4664 178.479 64.3264 178.293 64.2111C178.208 64.0299 178.141 63.9393 178.09 63.9393L177.938 63.6428L177.531 63.2969C177.531 63.2804 177.548 63.2557 177.582 63.2227L177.43 62.9757C177.362 62.778 177.294 62.6627 177.227 62.6297L176.592 61.5425ZM179.842 64.1864H179.867C179.918 64.1864 180.104 63.964 180.426 63.5193V63.4204C180.206 63.4204 180.053 63.511 179.969 63.6922C179.884 63.9887 179.842 64.1535 179.842 64.1864ZM181.137 62.185V62.2097C181.204 62.1767 181.255 62.1355 181.289 62.0861C181.306 62.0697 181.34 62.0614 181.391 62.0614L181.416 62.0367L181.213 61.9379L181.162 61.9132L181.238 61.8884C181.238 61.839 181.204 61.8061 181.137 61.7896C181.069 61.7896 181.069 61.9214 181.137 62.185ZM179.969 63.371H179.893C179.673 63.6346 179.605 63.8405 179.689 63.9887H179.715L179.893 63.4451L179.969 63.3957V63.371ZM178.395 63.0991H178.369C178.335 63.3792 178.344 63.5193 178.395 63.5193C178.479 63.2392 178.479 63.0991 178.395 63.0991ZM179.842 64.2111H179.791L179.588 64.4582V64.4829C179.723 64.4829 179.799 64.4087 179.816 64.2605C179.833 64.2605 179.842 64.2441 179.842 64.2111ZM179.41 64.1616V64.1864C179.427 64.2358 179.469 64.2605 179.537 64.2605C179.622 64.2111 179.664 64.1699 179.664 64.1369V64.1123H179.639L179.41 64.1616ZM178.902 64.2605H178.852C178.936 64.3428 179.097 64.3676 179.334 64.3347V64.3099C179.063 64.277 178.919 64.2605 178.902 64.2605ZM177.303 61.6414H177.455H177.76C177.624 61.6084 177.531 61.5919 177.48 61.5919H177.404C177.337 61.5919 177.303 61.6084 177.303 61.6414ZM178.979 63.8652H178.953C178.953 63.9146 178.995 63.964 179.08 64.0134H179.105L179.207 63.964C179.122 63.964 179.046 63.9311 178.979 63.8652ZM180.959 62.3579H181.01C181.044 62.3579 181.077 62.3085 181.111 62.2097L181.086 62.185C181.052 62.185 181.01 62.2426 180.959 62.3579ZM180.781 62.5803V62.6297H180.832C180.883 62.5803 180.908 62.5391 180.908 62.5062V62.4568H180.883C180.815 62.4732 180.781 62.5144 180.781 62.5803ZM178.725 63.8652H178.699V63.8898C178.699 63.9228 178.75 63.9558 178.852 63.9887H178.877L178.725 63.8652ZM180.654 62.8273C180.705 62.8109 180.747 62.7697 180.781 62.7039V62.6791C180.73 62.6791 180.688 62.7286 180.654 62.8273ZM178.826 64.3594H178.801L178.826 64.4087H178.852V64.3841L178.826 64.3594ZM177.531 62.6297C177.531 62.6627 177.548 62.6791 177.582 62.6791C177.582 62.6462 177.565 62.6297 177.531 62.6297ZM177.404 61.9873H177.379H177.354C177.37 61.9873 177.387 61.9873 177.404 61.9873ZM180.629 62.8768L180.578 62.9262H180.654V62.8768H180.629ZM197.793 65.7183L199.469 66.0395C199.757 66.0395 200.247 66.2784 200.941 66.7562H201.043C201.06 66.1137 201.119 65.7925 201.221 65.7925C201.729 65.9737 202.033 66.0643 202.135 66.0643H202.643L203.049 66.0395L203.1 66.1137L203.074 66.2619V69.4247C203.074 69.6059 203.015 69.7542 202.896 69.8695C203.032 70.0012 203.1 70.1247 203.1 70.2401C203.1 70.3554 203.049 70.4954 202.947 70.6602L203.023 71.0802C203.023 71.2778 202.973 71.3767 202.871 71.3767L202.211 71.2778H202.186L201.83 71.3767H201.779C201.712 71.3767 201.602 71.0226 201.449 70.3142C201.449 70.0836 201.348 69.8777 201.145 69.6965C200.924 69.3835 200.814 69.1694 200.814 69.0541L200.967 69.0046V68.9799C200.713 68.7823 200.561 68.5599 200.51 68.3128C199.816 67.6375 199.223 67.2997 198.732 67.2997H198.555C198.368 67.2997 197.522 67.4727 196.016 67.8187C195.88 67.9174 195.66 68.2304 195.355 68.7576C195.034 69.1694 194.873 69.5647 194.873 69.9435C194.975 70.9979 195.11 71.5249 195.279 71.5249C195.499 72.0851 195.762 72.4227 196.066 72.5381C196.117 72.6204 196.32 72.7027 196.676 72.7851C196.913 72.9992 197.412 73.2629 198.174 73.5758C198.174 73.6417 198.258 73.6829 198.428 73.6993L198.732 73.6006C198.868 73.6334 198.936 73.6664 198.936 73.6993V73.724L198.834 73.8229V73.897C199.071 74.1771 199.359 74.3171 199.697 74.3171V74.2924L199.215 73.897V73.8724C199.367 73.8724 199.909 74.1606 200.84 74.7371C202.245 76.0055 202.947 76.8126 202.947 77.1586C203.184 78.1635 203.303 78.7894 203.303 79.0365C203.15 80.2885 203.007 80.9144 202.871 80.9144L202.262 81.9522C201.094 82.644 200.408 82.9899 200.205 82.9899C198.258 82.5781 196.964 82.2487 196.32 82.0016C195 80.7991 194.34 80.0907 194.34 79.8766L194.238 79.8025L194.188 79.8272V79.9507V81.3344C194.188 81.4497 193.883 81.5074 193.273 81.5074H192.816L192.436 81.6309C192.317 81.6309 192.165 81.5403 191.979 81.3591V81.3344L192.105 81.1368C192.224 78.3693 192.368 76.9857 192.537 76.9857H192.588L193.045 77.0597C193.13 77.0597 193.214 77.0351 193.299 76.9857L193.629 77.0597L193.807 77.0104H193.908C193.976 77.0433 194.128 77.2822 194.365 77.7269C195.008 78.5176 195.584 79.2753 196.092 80.0001C196.16 80.0001 196.371 80.2225 196.727 80.6673L198.301 81.3344H198.758V81.4333H198.809L198.936 81.3591H198.986C199.122 81.458 199.249 81.5074 199.367 81.5074H199.52C199.977 81.4909 200.205 81.4333 200.205 81.3344V81.285H199.697L199.393 81.2603C199.41 81.1944 200.01 81.0709 201.195 80.8897C201.466 80.8897 201.729 80.4284 201.982 79.5059C201.982 79.2094 202.059 78.9953 202.211 78.8636V78.7647C201.923 77.8917 201.602 77.3234 201.246 77.0597C201.043 76.7139 200.273 76.3103 198.936 75.849C198.055 75.5196 197.344 75.1325 196.803 74.6877C196.007 74.4571 195.55 74.2018 195.432 73.9217C195.33 73.7076 194.941 73.3535 194.264 72.8592C193.959 71.9533 193.629 71.2532 193.273 70.7589C193.087 70.0341 192.994 69.2682 192.994 68.461C193.13 67.9174 193.739 67.1679 194.822 66.2126C195.449 65.8831 196.439 65.7183 197.793 65.7183ZM194.822 66.5831H195.127C195.262 66.5831 195.889 66.4431 197.006 66.1631C197.412 66.0972 197.615 66.0314 197.615 65.9655L197.514 65.9408C195.719 66.089 194.822 66.3032 194.822 66.5831ZM201.525 66.2619L201.5 66.3608V66.4349C201.5 66.5337 201.568 66.5831 201.703 66.5831H202.135V66.5584C201.965 66.3608 201.762 66.2619 201.525 66.2619ZM195.584 67.4974H195.635C195.804 67.4974 196.202 67.3491 196.828 67.0526L197.514 66.8055V66.8302L197.438 66.9785H197.641L197.793 66.9291V66.8302L197.742 66.7562V66.6079H197.691C197.014 66.8055 196.456 67.0114 196.016 67.2256C195.728 67.2751 195.584 67.3657 195.584 67.4974ZM199.875 66.8055H199.443C199.443 66.8385 199.697 66.9208 200.205 67.0526H200.332L200.383 67.028V66.9785C200.332 66.8632 200.163 66.8055 199.875 66.8055ZM201.627 66.8302L201.576 66.9291V66.9785L201.602 67.1267H201.678L201.754 67.0526V66.9291L201.678 66.8302H201.627ZM194.949 67.1762V67.2009C194.949 67.2503 194.983 67.2751 195.051 67.2751C195.135 67.2421 195.195 67.1845 195.229 67.102V67.0526C195.076 67.0526 194.983 67.0938 194.949 67.1762ZM200.713 67.2997L200.84 67.4233H200.967L201.043 67.3491V67.2751C201.043 67.2256 200.975 67.1762 200.84 67.1267C200.755 67.1597 200.713 67.2173 200.713 67.2997ZM202.008 67.6456L202.084 67.6951V67.7198L201.982 67.8433V67.9174C201.982 67.9504 202.05 67.9916 202.186 68.041C202.219 68.1728 202.27 68.2469 202.338 68.2634H202.414V68.1645L202.389 68.0905V67.9916H202.465L202.592 68.0905H202.643L202.668 67.9421V67.8927C202.549 67.4315 202.465 67.2009 202.414 67.2009H202.262C202.092 67.2668 202.008 67.415 202.008 67.6456ZM194.797 68.2634L194.949 68.4116H195C195.203 68.3787 195.389 68.2716 195.559 68.0905L195.482 68.041H195.203C195.017 68.041 194.882 68.1151 194.797 68.2634ZM193.68 68.0657L193.604 68.1398V68.1645H193.73V68.0657H193.68ZM194.365 69.227V69.2517H194.416C194.721 68.9717 194.873 68.7246 194.873 68.5105L194.797 68.4363C194.594 68.4363 194.45 68.6999 194.365 69.227ZM202.643 68.5105H202.516V68.5599C202.566 68.6587 202.617 68.7081 202.668 68.7081V68.6093L202.643 68.5105ZM202.389 68.6834L202.312 68.7576H202.389V68.6834ZM201.982 68.807L201.881 68.881V68.9058L201.982 69.0046H202.084L202.186 68.9058V68.881L202.084 68.807H201.982ZM202.566 69.0541L202.465 69.1282V69.3012L202.49 69.4741H202.566L202.643 69.0541H202.566ZM202.033 69.4741H201.982V69.5235L202.033 69.5977H202.135V69.5235L202.033 69.4741ZM201.957 70.1413V70.5366L202.008 70.586H202.033C202.169 70.586 202.245 70.5284 202.262 70.4131C202.177 70.2153 202.135 70.0507 202.135 69.9189H202.084C201.999 69.9518 201.957 70.026 201.957 70.1413ZM202.084 70.932L202.008 71.006L202.135 71.0802H202.211L202.236 71.006L202.135 70.932H202.084ZM194.264 71.9945V72.1674L194.365 72.2663H194.568V72.1674C194.45 72.0521 194.348 71.9945 194.264 71.9945ZM194.746 72.6616H194.721V72.7851C195.076 73.0322 195.313 73.1557 195.432 73.1557H195.533V73.057C195.296 72.8922 195.034 72.7604 194.746 72.6616ZM197.92 73.5017H197.691C197.708 73.5676 197.776 73.6006 197.895 73.6006H197.996V73.5758L197.92 73.5017ZM198.174 73.8724L198.098 73.9217C198.165 74.0206 198.445 74.177 198.936 74.3912V74.2924C198.699 74.0782 198.445 73.9382 198.174 73.8724ZM198.758 75.3549H198.631V75.4784C198.851 75.5772 199.122 75.6349 199.443 75.6514C199.443 75.7173 199.503 75.7502 199.621 75.7502H199.824V75.7255C199.824 75.5772 199.469 75.4537 198.758 75.3549ZM200.459 76.022H200.383V76.0961L200.459 76.1703H200.51V76.0961L200.459 76.022ZM192.816 78.567H192.715C192.63 78.8141 192.588 79.1271 192.588 79.5059L192.639 79.8272H192.664C192.816 79.8272 192.893 79.7613 192.893 79.6295C192.842 79.2506 192.816 78.8965 192.816 78.567ZM193.35 79.2836C193.265 79.5637 193.172 79.7449 193.07 79.8272L193.172 80.099V80.7415V80.8897C193.172 81.005 193.206 81.0626 193.273 81.0626H193.426L193.502 80.9885V80.8897C193.502 79.8189 193.451 79.2836 193.35 79.2836ZM194.746 79.9013H194.721V79.9507C194.788 80.2143 194.915 80.3461 195.102 80.3461V80.2966C194.983 80.0331 194.865 79.9013 194.746 79.9013ZM192.664 80.4449L192.715 80.4943H192.74C192.791 80.4943 192.833 80.3296 192.867 80.0001L192.816 79.9507C192.749 79.9507 192.698 80.1154 192.664 80.4449ZM195.635 80.1237H195.584V80.1484C195.719 80.3955 195.855 80.519 195.99 80.519V80.4449C195.855 80.2966 195.736 80.1896 195.635 80.1237ZM202.211 80.5437L202.084 80.6673L202.186 80.7661H202.312L202.414 80.6673V80.6179L202.338 80.5437H202.211ZM197.133 81.112V81.1368C197.167 81.2191 197.226 81.2603 197.311 81.2603C197.277 81.1615 197.217 81.112 197.133 81.112ZM195.914 81.1615L195.736 81.1368V81.1615C195.906 81.5239 196.329 81.8039 197.006 82.0016C197.564 82.1992 198.352 82.4052 199.367 82.6193C199.57 82.7511 199.748 82.8252 199.9 82.8417H200.129C200.552 82.7264 200.764 82.5781 200.764 82.3969L198.479 82.224C197.141 81.8121 196.286 81.458 195.914 81.1615ZM200.383 81.878V81.9274L200.459 81.9769H200.586C201.195 81.9769 201.534 81.8945 201.602 81.7298L201.5 81.6804H201.348C201.161 81.6804 200.84 81.7462 200.383 81.878ZM199.621 82.4958V82.3969H199.672C199.79 82.3969 199.85 82.4299 199.85 82.4958H199.773H199.621ZM204.217 65.7183L209.168 65.6195C213.01 65.669 214.932 65.7513 214.932 65.8666C214.932 65.916 214.881 65.9408 214.779 65.9408V66.0148H214.83C214.999 65.8502 215.423 65.7266 216.1 65.6442L216.227 65.6195C216.277 65.7513 216.303 65.8583 216.303 65.9408C216.303 66.8797 216.354 67.7033 216.455 68.4116L215.973 69.3753C215.77 69.4741 215.575 69.5235 215.389 69.5235C214.847 69.5235 214.576 69.367 214.576 69.0541V69.0046C214.61 68.8893 214.695 68.7576 214.83 68.6093C214.661 68.5599 214.576 68.4199 214.576 68.1892C214.576 67.8927 214.449 67.7445 214.195 67.7445C214.195 67.6127 214.178 67.5469 214.145 67.5469H213.459V67.5715C213.459 67.6209 213.561 67.6703 213.764 67.7198V67.8187L213.561 67.868L210.438 67.7939H208.812C207.712 67.7939 207.162 67.8598 207.162 67.9916C207.247 67.9916 207.34 69.54 207.441 72.6368C207.56 72.7522 207.661 72.8099 207.746 72.8099H207.924L209.193 72.7357L211.25 72.9828C211.419 72.9828 211.504 72.744 211.504 72.2663C211.504 72.0521 211.715 71.912 212.139 71.8462L212.316 71.7227C212.536 71.7227 212.646 72.571 212.646 74.2677V75.2807C212.646 75.429 212.604 75.5196 212.52 75.5525C212.316 75.4537 211.986 75.3631 211.529 75.2807C211.479 75.2807 211.394 75.0254 211.275 74.5147C211.275 74.35 210.624 74.2677 209.32 74.2677C208.118 74.2677 207.518 74.3171 207.518 74.416L207.492 74.8113L207.645 77.3315C207.611 78.287 207.535 79.2671 207.416 80.2719L207.518 80.3214C208.245 80.2719 209.193 80.1896 210.361 80.0743H210.387C211.267 80.0743 212.477 80.1649 214.018 80.3461H214.068C214.204 80.3461 214.28 80.2637 214.297 80.099H214.449L214.703 80.3214L214.729 80.1731C214.729 79.8766 214.669 79.7283 214.551 79.7283L214.373 79.8272C214.204 79.7119 214.077 79.5307 213.992 79.2836C213.992 79.1024 214.305 78.9789 214.932 78.9129C214.982 78.9129 215.194 79.0118 215.566 79.2094C215.753 79.2094 215.846 79.3824 215.846 79.7283C215.846 80.8814 215.888 81.8286 215.973 82.5699L215.896 82.817H215.77C215.651 82.7181 215.211 82.644 214.449 82.5945C214.449 82.5287 211.445 82.4381 205.436 82.3228C205.063 82.3228 204.877 82.1745 204.877 81.878C204.809 81.8121 204.775 81.5156 204.775 80.9885L204.877 80.4449V80.1979L204.953 80.099H205.029C205.182 80.2472 205.309 80.3214 205.41 80.3214H205.486C205.842 80.239 206.02 80.1154 206.02 79.9507L205.867 74.3665C205.867 74.2512 205.774 74.037 205.588 73.724C205.639 73.724 205.706 72.1509 205.791 69.0046C205.842 68.9058 205.867 68.7411 205.867 68.5105V68.4116C205.867 67.9669 205.596 67.7445 205.055 67.7445L204.42 67.5715L204.09 67.6209C203.819 67.6209 203.684 67.2503 203.684 66.5091L203.658 66.4844C203.675 65.9737 203.853 65.7183 204.191 65.7183H204.217ZM204.344 65.9901H204.242V66.0148L204.496 66.3855C204.615 66.2207 204.716 66.1384 204.801 66.1384L204.979 66.1631L205.055 66.1384C204.885 66.0395 204.648 65.9901 204.344 65.9901ZM205.689 66.1384C205.571 66.1549 205.512 66.1878 205.512 66.2373C205.512 66.2866 205.537 66.3113 205.588 66.3113L205.816 66.2373V66.1384H205.689ZM207.975 66.1631H207.898V66.2126H207.975V66.1631ZM206.045 66.2619L205.969 66.3855V66.4102C206.003 66.5091 206.096 66.5584 206.248 66.5584H206.553V66.4596C206.333 66.3279 206.172 66.2619 206.07 66.2619H206.045ZM207.289 66.4844H207.162V66.5091C207.196 66.5914 207.272 66.6326 207.391 66.6326H207.518V66.6079C207.484 66.5255 207.408 66.4844 207.289 66.4844ZM213.916 66.5584L213.002 66.5831V66.6326L214.449 66.8055C214.5 66.7891 214.542 66.7396 214.576 66.6573V66.5831L213.916 66.5584ZM208.305 66.6079C208.305 66.6737 208.457 66.7067 208.762 66.7067C208.762 66.6408 208.609 66.6079 208.305 66.6079ZM207.111 67.2751C207.145 67.4068 207.23 67.4727 207.365 67.4727H207.391C208.051 67.4563 208.381 67.3903 208.381 67.2751C208.381 67.1762 208.169 67.1267 207.746 67.1267H207.67C207.298 67.1267 207.111 67.1762 207.111 67.2751ZM209.219 67.2503L209.168 67.2751C209.185 67.3409 209.244 67.3738 209.346 67.3738H209.371C209.49 67.3738 209.557 67.3409 209.574 67.2751L209.498 67.2503H209.219ZM205.689 67.3244H205.105V67.3738H205.689V67.3244ZM214.932 68.2634V68.2881L215.008 68.3622C215.059 68.3622 215.101 68.2716 215.135 68.0905L215.109 67.9174H215.033C214.965 67.9174 214.932 68.0328 214.932 68.2634ZM215.465 68.8564L215.516 68.881L215.592 68.9552V68.9799C215.693 68.9799 215.744 68.8893 215.744 68.7081V68.6587H215.643C215.592 68.6917 215.533 68.7576 215.465 68.8564ZM206.705 68.7576L206.654 68.8564V69.0541C206.688 69.1858 206.756 69.2517 206.857 69.2517L206.908 69.1282V69.1035C206.908 68.9223 206.84 68.807 206.705 68.7576ZM206.857 69.993L206.705 70.1166V70.2895L206.807 70.3884H206.883L206.934 70.3142L206.857 69.993ZM207.67 73.1804L207.594 73.2793V73.304H207.797V73.2546L207.695 73.1804H207.67ZM209.447 73.4275H209.371V73.5017L209.447 73.5511H209.498V73.5017L209.447 73.4275ZM209.803 73.5017H209.701V73.5511H209.803V73.5017ZM210.133 73.5017H210.006L210.107 73.6006H210.209V73.5511L210.133 73.5017ZM206.477 75.1325H206.375L206.324 75.2807V75.5031H206.4L206.477 75.4784V75.1325ZM207.035 77.0597H206.959V77.1339H207.035V77.0597ZM207.01 78.7894H206.934L206.908 78.9376V79.2589L206.934 79.2836V79.3083C207.052 79.3083 207.111 79.2177 207.111 79.0365C207.111 78.8883 207.077 78.8059 207.01 78.7894ZM215.211 79.5554L215.287 79.6295C215.372 79.5965 215.414 79.5637 215.414 79.5307V79.4812L215.363 79.4072C215.262 79.4401 215.211 79.4895 215.211 79.5554ZM206.934 80.7415H206.857V80.8155H206.934V80.7415ZM207.035 80.9638L206.959 81.0379V81.0626C206.976 81.1285 207.069 81.1615 207.238 81.1615H207.365L207.518 81.112V81.0626C207.501 80.9967 207.441 80.9638 207.34 80.9638H207.035ZM208.965 81.0626H208.711V81.112L208.762 81.1862H208.863L209.016 81.1615V81.112L208.965 81.0626ZM214.398 81.0626L214.297 81.1862V81.2109C214.314 81.2768 214.373 81.3097 214.475 81.3097C214.644 81.2932 214.729 81.2521 214.729 81.1862V81.1615L214.703 81.0626H214.398ZM210.006 81.1615H209.422V81.2109L210.006 81.285H211.504C211.504 81.2026 211.005 81.1615 210.006 81.1615ZM206.248 81.2603L205.969 81.285V81.3344C206.003 81.4168 206.07 81.458 206.172 81.458H206.426L206.502 81.3591V81.3344C206.502 81.285 206.443 81.2603 206.324 81.2603H206.248ZM212.723 81.285H212.469V81.3097C212.469 81.3921 212.875 81.4415 213.688 81.458V81.4086C213.383 81.3262 213.061 81.285 212.723 81.285ZM205.436 81.7051H205.334V81.9027L205.41 81.9522H205.436V81.7051ZM215.262 81.7298H215.008V81.8286L215.287 81.9027H215.363L215.414 81.8286V81.7792L215.262 81.7298ZM212.951 81.9769L213.205 82.051H213.434C213.552 82.051 213.62 82.018 213.637 81.9522H213.586L213.307 81.9027C213.07 81.9357 212.951 81.9604 212.951 81.9769ZM210.996 81.9522H210.844V81.9769L210.895 82.051H211.275V81.9769L210.996 81.9522ZM208.99 81.9769L208.889 82.0757V82.1498H209.016L209.066 82.0757V82.051L209.016 81.9769H208.99ZM217.877 67.102L218.182 67.2009C219.045 67.135 221.034 67.102 224.148 67.102L225.367 67.4727C226.146 67.5715 226.671 67.7281 226.941 67.9421C228.194 69.0129 228.82 69.9354 228.82 70.7096C228.736 71.1379 228.558 71.8133 228.287 72.7357C227.695 73.3288 227.136 73.8146 226.611 74.1935C226.611 74.3418 226.772 74.4736 227.094 74.5889C227.263 74.7042 227.534 74.836 227.906 74.9842C228.109 75.1819 228.439 75.5772 228.896 76.1703C229.506 76.7633 229.861 77.4798 229.963 78.32L229.988 78.5918C229.988 78.7564 229.929 78.8389 229.811 78.8389V78.8636C229.811 78.9623 229.904 79.1765 230.09 79.5059V79.7283C230.09 79.8766 229.971 80.206 229.734 80.7167C229.734 80.9308 229.548 81.0709 229.176 81.1368C228.956 81.1368 228.736 81.285 228.516 81.5815V81.6309C228.516 81.6639 228.583 81.6968 228.719 81.7298V81.7545C228.685 81.8368 228.626 81.878 228.541 81.878C228.541 81.7792 228.516 81.7298 228.465 81.7298C228.431 81.7298 228.397 81.7957 228.363 81.9274C228.059 81.9274 227.695 82.0592 227.271 82.3228V82.3722H227.348C227.449 82.3722 227.695 82.2899 228.084 82.1251V82.1498C227.83 82.3804 227.314 82.5781 226.535 82.7428C225.452 83.2206 223.268 83.4594 219.984 83.4594V83.4099L219.959 83.2865C219.18 83.2865 218.469 83.4347 217.826 83.7312C217.555 83.7312 217.42 83.2782 217.42 82.3722C217.42 82.2404 217.928 82.0345 218.943 81.7545C219.688 81.6721 220.061 81.598 220.061 81.532V81.5074C219.959 81.5074 219.84 80.8155 219.705 79.4318C219.671 78.8883 219.62 78.5176 219.553 78.32C219.553 78.1388 219.62 77.8999 219.756 77.6033C219.722 76.4174 219.629 75.8243 219.477 75.8243C219.375 75.8243 219.29 74.4818 219.223 71.7967V69.2764C218.85 69.1282 218.605 69.0541 218.486 69.0541H218.309C218.19 69.0541 218.114 69.0952 218.08 69.1776V69.227L218.105 69.4247C218.105 69.4576 217.987 69.7294 217.75 70.2401V70.2895L217.344 70.3142C217.293 70.2319 217.132 70.1824 216.861 70.166C216.709 70.166 216.607 69.68 216.557 68.7081C216.506 68.4281 216.413 68.1069 216.277 67.7445C216.531 67.3985 216.811 67.2256 217.115 67.2256C217.115 67.1926 217.369 67.1515 217.877 67.102ZM220.238 67.9174L220.289 67.9421H221C221.643 67.9421 221.965 67.8763 221.965 67.7445V67.7198C221.965 67.7033 221.914 67.6786 221.812 67.6456C220.814 67.6951 220.289 67.7857 220.238 67.9174ZM219.096 67.8433L219.756 68.041H219.807C219.908 68.041 219.993 67.9916 220.061 67.8927C220.061 67.8104 219.866 67.7527 219.477 67.7198C219.223 67.7362 219.096 67.7774 219.096 67.8433ZM222.65 67.7198H222.523V67.7939H222.65V67.7198ZM226.764 68.3128L226.688 68.3869V68.4116L226.789 68.5352H226.941L226.992 68.461V68.4363L226.891 68.3128H226.764ZM220.695 68.6587V68.7081L220.771 68.807H220.873C221.736 68.7246 222.202 68.6258 222.27 68.5105L222.219 68.461C221.203 68.5105 220.695 68.5764 220.695 68.6587ZM220.873 69.3259C221.008 72.8675 221.127 74.6383 221.229 74.6383L221.305 74.6877H221.33L223.641 74.1688C224.656 74.037 225.164 73.9053 225.164 73.7735C226.383 72.851 226.992 72.2168 226.992 71.8709V71.7227C226.806 70.7837 226.713 70.2566 226.713 70.1413C226.713 69.713 226.417 69.3094 225.824 68.9305C225.604 68.881 225.189 68.8482 224.58 68.8317C222.109 68.9635 220.873 69.1282 220.873 69.3259ZM226.764 69.0541H226.535V69.1282C226.84 69.3918 226.992 69.7623 226.992 70.2401C227.128 70.7178 227.221 70.9979 227.271 71.0802H227.322V70.8578C227.17 69.6553 226.984 69.0541 226.764 69.0541ZM228.16 69.5977H228.084V69.6718L228.211 69.7706H228.287V69.6965L228.16 69.5977ZM227.703 70.166L227.627 70.2401L227.652 70.3389H227.729L227.881 70.2153L227.805 70.166H227.703ZM227.881 70.8084L227.805 70.7589L227.779 70.7837V70.9072L227.83 70.9567L227.881 70.932V70.8084ZM219.553 71.4261L219.477 71.5003V71.7227L219.553 71.7721H219.578L219.654 71.7227V71.6238C219.654 71.5085 219.62 71.4426 219.553 71.4261ZM226.357 73.6746L226.256 73.7735H226.332L226.383 73.724V73.6746H226.357ZM222.676 74.7618H222.752V74.7865C223.801 74.7042 224.326 74.6136 224.326 74.5147V74.49H224.199C223.268 74.5065 222.76 74.5971 222.676 74.7618ZM225.367 74.7371V74.7865H225.393C225.748 74.7865 226.205 74.8689 226.764 75.0336C226.814 75.0336 226.84 75.0007 226.84 74.9348C226.738 74.7042 226.51 74.5889 226.154 74.5889H225.875C225.536 74.5889 225.367 74.6383 225.367 74.7371ZM227.17 75.1078V75.1325C227.373 75.3631 227.559 75.4784 227.729 75.4784V75.4537C227.729 75.289 227.542 75.1737 227.17 75.1078ZM222.777 75.6514C222.777 75.6843 222.811 75.7008 222.879 75.7008C223.336 75.6843 223.818 75.6184 224.326 75.5031L225.215 75.4784H225.52L225.697 75.4537V75.4043C225.697 75.3219 225.443 75.2807 224.936 75.2807H224.479C223.564 75.2807 222.997 75.4043 222.777 75.6514ZM222.523 75.5525H222.422V75.6019H222.523V75.5525ZM226.383 75.5525H226.332V75.6514H226.383V75.5525ZM221.178 75.8985V75.9479H221.254C221.677 75.8985 221.889 75.8326 221.889 75.7502H221.812C221.66 75.7502 221.449 75.7996 221.178 75.8985ZM221.127 76.269L221.051 76.3926L221.025 76.9362C221.093 79.753 221.22 81.3509 221.406 81.7298C221.491 82.0098 221.694 82.1498 222.016 82.1498L224.275 82.2487C225.189 82.1992 226.307 81.8204 227.627 81.112C228.27 80.4861 228.592 80.0578 228.592 79.8272C228.66 79.8272 228.702 79.7449 228.719 79.5801V79.5059C228.719 78.7647 228.49 77.974 228.033 77.1339C227.559 76.6397 227.178 76.3926 226.891 76.3926H226.688C226.586 76.3596 226.535 76.335 226.535 76.3185C226.535 76.2526 226.594 76.2197 226.713 76.2197V76.1703C226.594 76.0055 226.408 75.9232 226.154 75.9232H226.129V75.9479L226.256 76.0961V76.1455H226.205C225.426 75.8985 224.8 75.7749 224.326 75.7749H224.199C223.031 75.7749 222.007 75.9396 221.127 76.269ZM227.881 75.9726L227.805 76.022C227.872 76.269 228.084 76.5244 228.439 76.7879H228.516V76.6892C228.465 76.4585 228.262 76.2197 227.906 75.9726H227.881ZM227.576 81.7792L227.627 81.8286H227.652C227.872 81.8286 228.042 81.7051 228.16 81.458V81.4333H228.135C227.762 81.5486 227.576 81.6639 227.576 81.7792ZM220.365 81.5815H220.213V81.6062C220.23 81.6721 220.289 81.7051 220.391 81.7051V81.6309L220.365 81.5815ZM226.891 82.0757V82.1745H226.992C227.111 82.1745 227.221 82.1004 227.322 81.9522V81.878C227.035 81.9274 226.891 81.9933 226.891 82.0757ZM219.68 82.4958H219.502V82.6193H219.68H219.807H219.959V82.4958H219.807H219.68ZM222.066 82.7428L222.016 82.7923H222.143L222.066 82.7428ZM218.537 82.8417L218.461 82.8663C218.495 82.9488 218.562 82.9899 218.664 82.9899L218.766 82.8663L218.715 82.8417H218.537ZM230.852 65.7183L235.803 65.6195C239.645 65.669 241.566 65.7513 241.566 65.8666C241.566 65.916 241.516 65.9408 241.414 65.9408V66.0148H241.465C241.634 65.8502 242.057 65.7266 242.734 65.6442L242.861 65.6195C242.912 65.7513 242.938 65.8583 242.938 65.9408C242.938 66.8797 242.988 67.7033 243.09 68.4116L242.607 69.3753C242.404 69.4741 242.21 69.5235 242.023 69.5235C241.482 69.5235 241.211 69.367 241.211 69.0541V69.0046C241.245 68.8893 241.329 68.7576 241.465 68.6093C241.296 68.5599 241.211 68.4199 241.211 68.1892C241.211 67.8927 241.084 67.7445 240.83 67.7445C240.83 67.6127 240.813 67.5469 240.779 67.5469H240.094V67.5715C240.094 67.6209 240.195 67.6703 240.398 67.7198V67.8187L240.195 67.868L237.072 67.7939H235.447C234.347 67.7939 233.797 67.8598 233.797 67.9916C233.882 67.9916 233.975 69.54 234.076 72.6368C234.195 72.7522 234.296 72.8099 234.381 72.8099H234.559L235.828 72.7357L237.885 72.9828C238.054 72.9828 238.139 72.744 238.139 72.2663C238.139 72.0521 238.35 71.912 238.773 71.8462L238.951 71.7227C239.171 71.7227 239.281 72.571 239.281 74.2677V75.2807C239.281 75.429 239.239 75.5196 239.154 75.5525C238.951 75.4537 238.621 75.3631 238.164 75.2807C238.113 75.2807 238.029 75.0254 237.91 74.5147C237.91 74.35 237.258 74.2677 235.955 74.2677C234.753 74.2677 234.152 74.3171 234.152 74.416L234.127 74.8113L234.279 77.3315C234.245 78.287 234.169 79.2671 234.051 80.2719L234.152 80.3214C234.88 80.2719 235.828 80.1896 236.996 80.0743H237.021C237.902 80.0743 239.112 80.1649 240.652 80.3461H240.703C240.839 80.3461 240.915 80.2637 240.932 80.099H241.084L241.338 80.3214L241.363 80.1731C241.363 79.8766 241.304 79.7283 241.186 79.7283L241.008 79.8272C240.839 79.7119 240.712 79.5307 240.627 79.2836C240.627 79.1024 240.94 78.9789 241.566 78.9129C241.617 78.9129 241.829 79.0118 242.201 79.2094C242.387 79.2094 242.48 79.3824 242.48 79.7283C242.48 80.8814 242.523 81.8286 242.607 82.5699L242.531 82.817H242.404C242.286 82.7181 241.846 82.644 241.084 82.5945C241.084 82.5287 238.079 82.4381 232.07 82.3228C231.698 82.3228 231.512 82.1745 231.512 81.878C231.444 81.8121 231.41 81.5156 231.41 80.9885L231.512 80.4449V80.1979L231.588 80.099H231.664C231.816 80.2472 231.943 80.3214 232.045 80.3214H232.121C232.477 80.239 232.654 80.1154 232.654 79.9507L232.502 74.3665C232.502 74.2512 232.409 74.037 232.223 73.724C232.273 73.724 232.341 72.1509 232.426 69.0046C232.477 68.9058 232.502 68.7411 232.502 68.5105V68.4116C232.502 67.9669 232.231 67.7445 231.689 67.7445L231.055 67.5715L230.725 67.6209C230.454 67.6209 230.318 67.2503 230.318 66.5091L230.293 66.4844C230.31 65.9737 230.488 65.7183 230.826 65.7183H230.852ZM230.979 65.9901H230.877V66.0148L231.131 66.3855C231.249 66.2207 231.351 66.1384 231.436 66.1384L231.613 66.1631L231.689 66.1384C231.52 66.0395 231.283 65.9901 230.979 65.9901ZM232.324 66.1384C232.206 66.1549 232.146 66.1878 232.146 66.2373C232.146 66.2866 232.172 66.3113 232.223 66.3113L232.451 66.2373V66.1384H232.324ZM234.609 66.1631H234.533V66.2126H234.609V66.1631ZM232.68 66.2619L232.604 66.3855V66.4102C232.637 66.5091 232.73 66.5584 232.883 66.5584H233.188V66.4596C232.967 66.3279 232.807 66.2619 232.705 66.2619H232.68ZM233.924 66.4844H233.797V66.5091C233.831 66.5914 233.907 66.6326 234.025 66.6326H234.152V66.6079C234.118 66.5255 234.042 66.4844 233.924 66.4844ZM240.551 66.5584L239.637 66.5831V66.6326L241.084 66.8055C241.135 66.7891 241.177 66.7396 241.211 66.6573V66.5831L240.551 66.5584ZM234.939 66.6079C234.939 66.6737 235.092 66.7067 235.396 66.7067C235.396 66.6408 235.244 66.6079 234.939 66.6079ZM233.746 67.2751C233.78 67.4068 233.865 67.4727 234 67.4727H234.025C234.686 67.4563 235.016 67.3903 235.016 67.2751C235.016 67.1762 234.804 67.1267 234.381 67.1267H234.305C233.932 67.1267 233.746 67.1762 233.746 67.2751ZM235.854 67.2503L235.803 67.2751C235.82 67.3409 235.879 67.3738 235.98 67.3738H236.006C236.124 67.3738 236.192 67.3409 236.209 67.2751L236.133 67.2503H235.854ZM232.324 67.3244H231.74V67.3738H232.324V67.3244ZM241.566 68.2634V68.2881L241.643 68.3622C241.693 68.3622 241.736 68.2716 241.77 68.0905L241.744 67.9174H241.668C241.6 67.9174 241.566 68.0328 241.566 68.2634ZM242.1 68.8564L242.15 68.881L242.227 68.9552V68.9799C242.328 68.9799 242.379 68.8893 242.379 68.7081V68.6587H242.277C242.227 68.6917 242.167 68.7576 242.1 68.8564ZM233.34 68.7576L233.289 68.8564V69.0541C233.323 69.1858 233.391 69.2517 233.492 69.2517L233.543 69.1282V69.1035C233.543 68.9223 233.475 68.807 233.34 68.7576ZM233.492 69.993L233.34 70.1166V70.2895L233.441 70.3884H233.518L233.568 70.3142L233.492 69.993ZM234.305 73.1804L234.229 73.2793V73.304H234.432V73.2546L234.33 73.1804H234.305ZM236.082 73.4275H236.006V73.5017L236.082 73.5511H236.133V73.5017L236.082 73.4275ZM236.438 73.5017H236.336V73.5511H236.438V73.5017ZM236.768 73.5017H236.641L236.742 73.6006H236.844V73.5511L236.768 73.5017ZM233.111 75.1325H233.01L232.959 75.2807V75.5031H233.035L233.111 75.4784V75.1325ZM233.67 77.0597H233.594V77.1339H233.67V77.0597ZM233.645 78.7894H233.568L233.543 78.9376V79.2589L233.568 79.2836V79.3083C233.687 79.3083 233.746 79.2177 233.746 79.0365C233.746 78.8883 233.712 78.8059 233.645 78.7894ZM241.846 79.5554L241.922 79.6295C242.007 79.5965 242.049 79.5637 242.049 79.5307V79.4812L241.998 79.4072C241.896 79.4401 241.846 79.4895 241.846 79.5554ZM233.568 80.7415H233.492V80.8155H233.568V80.7415ZM233.67 80.9638L233.594 81.0379V81.0626C233.611 81.1285 233.704 81.1615 233.873 81.1615H234L234.152 81.112V81.0626C234.135 80.9967 234.076 80.9638 233.975 80.9638H233.67ZM235.6 81.0626H235.346V81.112L235.396 81.1862H235.498L235.65 81.1615V81.112L235.6 81.0626ZM241.033 81.0626L240.932 81.1862V81.2109C240.949 81.2768 241.008 81.3097 241.109 81.3097C241.279 81.2932 241.363 81.2521 241.363 81.1862V81.1615L241.338 81.0626H241.033ZM236.641 81.1615H236.057V81.2109L236.641 81.285H238.139C238.139 81.2026 237.639 81.1615 236.641 81.1615ZM232.883 81.2603L232.604 81.285V81.3344C232.637 81.4168 232.705 81.458 232.807 81.458H233.061L233.137 81.3591V81.3344C233.137 81.285 233.077 81.2603 232.959 81.2603H232.883ZM239.357 81.285H239.104V81.3097C239.104 81.3921 239.51 81.4415 240.322 81.458V81.4086C240.018 81.3262 239.696 81.285 239.357 81.285ZM232.07 81.7051H231.969V81.9027L232.045 81.9522H232.07V81.7051ZM241.896 81.7298H241.643V81.8286L241.922 81.9027H241.998L242.049 81.8286V81.7792L241.896 81.7298ZM239.586 81.9769L239.84 82.051H240.068C240.187 82.051 240.255 82.018 240.271 81.9522H240.221L239.941 81.9027C239.704 81.9357 239.586 81.9604 239.586 81.9769ZM237.631 81.9522H237.479V81.9769L237.529 82.051H237.91V81.9769L237.631 81.9522ZM235.625 81.9769L235.523 82.0757V82.1498H235.65L235.701 82.0757V82.051L235.65 81.9769H235.625Z" fill="black"/>
<path d="M16 49.6309V2.91946H324V25.302" stroke="url(#paint0_linear)" stroke-width="5"/>
<path d="M324.146 95.3181L323.999 142.029L16 141.107L16.0708 118.725" stroke="url(#paint1_linear)" stroke-width="5"/>
<defs>
<linearGradient id="paint0_linear" x1="170" y1="2.91946" x2="170" y2="49.6309" gradientUnits="userSpaceOnUse">
<stop stop-color="#3A9166"/>
<stop offset="1" stop-color="#3A9166" stop-opacity="0"/>
</linearGradient>
<linearGradient id="paint1_linear" x1="169.999" y1="141.569" x2="170.139" y2="94.857" gradientUnits="userSpaceOnUse">
<stop stop-color="#3A9166"/>
<stop offset="1" stop-color="white" stop-opacity="0"/>
</linearGradient>
</defs>
</svg>
